<svg xmlns="http://www.w3.org/2000/svg" viewBox="0 0 97.64 207.27"><defs><style>.cls-1{fill:#aa9b9b;}.cls-2{fill:#fff;}</style></defs><g id="Layer_2" data-name="Layer 2"><g id="Layer_1-2" data-name="Layer 1"><path class="cls-1" d="M.7,178.26a151.82,151.82,0,0,0,44.42-52A150.78,150.78,0,0,0,61.93,57.1a150.65,150.65,0,0,0-7-45.57L88.45.63A184.68,184.68,0,0,1,88,114.18a184.61,184.61,0,0,1-66.73,92.39Z"/><path class="cls-2" d="M88.12,1.26A184.17,184.17,0,0,1,87.52,114a184.19,184.19,0,0,1-66.15,91.85l-20-27.5a152.44,152.44,0,0,0,44.18-51.88A151.35,151.35,0,0,0,62.43,57.1a150.65,150.65,0,0,0-6.91-45.24l32.6-10.6M88.77,0,54.27,11.21A150,150,0,0,1,61.43,57.1,149.77,149.77,0,0,1,0,178.15l21.15,29.12a185.58,185.58,0,0,0,67.32-92.94A185.6,185.6,0,0,0,88.77,0Z"/></g></g></svg>