<svg xmlns="http://www.w3.org/2000/svg" viewBox="0 0 218.08 64.5"><defs><style>.cls-1{fill:#aa9b9b;}.cls-2{fill:#fff;}</style></defs><g id="Layer_2" data-name="Layer 2"><g id="Layer_1-2" data-name="Layer 1"><path class="cls-1" d="M108.85,64a185.51,185.51,0,0,1-57.49-9.15A185.53,185.53,0,0,1,.7,29.34L21.51.7a149.43,149.43,0,0,0,87.65,28.15A149.44,149.44,0,0,0,196.82.7L217.38,29A187.65,187.65,0,0,1,108.86,64Z"/><path class="cls-2" d="M196.7,1.39l20,27.49a185.77,185.77,0,0,1-50.47,25.48,184.42,184.42,0,0,1-57.36,9.14,185.48,185.48,0,0,1-57.34-9.12A185.69,185.69,0,0,1,1.4,29.23L21.63,1.39a149.84,149.84,0,0,0,87.53,28,149.85,149.85,0,0,0,87.54-28M196.93,0a149.35,149.35,0,0,1-87.77,28.35A149.34,149.34,0,0,1,21.4,0L0,29.46A186.48,186.48,0,0,0,51.2,55.33a186.27,186.27,0,0,0,57.65,9.17A186.93,186.93,0,0,0,218.08,29.11L196.93,0Z"/></g></g></svg>