<svg xmlns="http://www.w3.org/2000/svg" viewBox="0 0 98.3 207.8"><defs><style>.cls-1{fill:#aa9b9b;}.cls-2{fill:#fff;}</style></defs><g id="Layer_2" data-name="Layer 2"><g id="Layer_1-2" data-name="Layer 1"><path class="cls-1" d="M76.79,207.11A186.07,186.07,0,0,1,9.26.63L43.41,11.72a150.8,150.8,0,0,0,9.77,114.73,151.84,151.84,0,0,0,44.43,52Z"/><path class="cls-2" d="M9.59,1.26,42.78,12.05a151.35,151.35,0,0,0,9.95,114.63,152.55,152.55,0,0,0,44.18,51.88L76.68,206.41a184.73,184.73,0,0,1-39.89-40,186.11,186.11,0,0,1-26.15-50.58A184,184,0,0,1,9.59,1.26M8.94,0a186.56,186.56,0,0,0,68,207.8l21.4-29.45A150.15,150.15,0,0,1,44,11.4L8.94,0Z"/></g></g></svg>