<svg xmlns="http://www.w3.org/2000/svg" viewBox="0 0 177.13 140.1"><defs><style>.cls-1{fill:#aa9b9b;}.cls-2{fill:#fff;}</style></defs><g id="Layer_2" data-name="Layer 2"><g id="Layer_1-2" data-name="Layer 1"><path class="cls-1" d="M.63,128.37A186.07,186.07,0,0,1,176.63.5V36.44a150.27,150.27,0,0,0-141.85,103Z"/><path class="cls-2" d="M176.13,1V36A151.06,151.06,0,0,0,34.46,138.84L1.26,128.05A184,184,0,0,1,69.33,35.69,185.91,185.91,0,0,1,176.13,1m1-1A186.59,186.59,0,0,0,0,128.69L35.1,140.1a150,150,0,0,1,142-103.16V0Z"/></g></g></svg>